<svg width="441" height="541" viewBox="0 0 441 541" fill="none" xmlns="http://www.w3.org/2000/svg">
<path d="M441 220.5C441 280.432 417.09 334.779 378.288 374.523C338.247 415.537 282.347 441 220.5 441C158.186 441 101.909 415.151 61.8069 373.591C23.5388 333.931 0 279.965 0 220.5C0 98.7212 98.7212 0 220.5 0C342.279 0 441 98.7212 441 220.5Z" fill="#A5C8CA"/>
<path fill-rule="evenodd" clip-rule="evenodd" d="M173.56 243.586C179.022 272.008 198.191 293 221 293C243.658 293 262.724 272.285 268.33 244.149C253.089 239.506 236.851 237 220 237C203.844 237 188.251 239.304 173.56 243.586Z" fill="white"/>
<path fill-rule="evenodd" clip-rule="evenodd" d="M378.288 374.523C338.247 415.537 282.347 441 220.5 441C158.186 441 101.909 415.151 61.8069 373.591C68.301 311.926 113.35 261.137 173.56 243.586C188.251 239.304 203.844 237 220 237C236.851 237 253.089 239.506 268.33 244.149C327.893 262.295 372.216 313.086 378.288 374.523Z" fill="#586875"/>
<ellipse cx="220" cy="153.5" rx="72" ry="76.5" fill="#586875"/>
<path d="M222.092 43.4257L352.331 94.2049C354.878 95.198 354.878 98.802 352.331 99.7951L290.786 123.791C290.432 123.929 290.055 123.999 289.675 123.996L149.999 123.004C149.633 123.001 149.269 122.931 148.928 122.798L90.1395 99.7937C87.5971 98.7989 87.5971 95.2011 90.1395 94.2063L219.909 43.427C220.61 43.1524 221.39 43.152 222.092 43.4257Z" fill="#586875"/>
<path d="M152.5 146.22V111.907C168.018 97.3795 193.699 89.7499 220 89.7499C246.301 89.7499 271.982 97.3795 287.5 111.907V146.22C269.77 133.085 244.678 126.75 220 126.75C195.322 126.75 170.23 133.085 152.5 146.22Z" fill="#A5C8CA" stroke="#586875" stroke-width="9" stroke-linejoin="round"/>
</svg>
